<?xml version="1.0" encoding="UTF-8"?><svg id="objects" xmlns="http://www.w3.org/2000/svg" viewBox="0 0 688.46 616.47"><defs><style>.cls-1{stroke-width:4.63px;}.cls-1,.cls-2{fill:#fff;}.cls-1,.cls-2,.cls-3{stroke:#000;stroke-miterlimit:10;}.cls-2{stroke-width:4.63px;}.cls-3{fill:none;stroke-width:5px;}</style></defs><g id="wheel-perspective"><path id="curviture" class="cls-3" d="M534.23,574.05c12.56,12.78,35.6,19.05,35.6,18.09l-79.01-18.92c-33.58,0-63.03-53.09-63.03-109.9s30.47-117.91,63.03-117.91l86.83-13c-12.6,0-30.85,7.39-43.42,20.17-22.81,23.19-37.96,64.12-37.96,110.74s15.15,87.54,37.96,110.73Z"/><path id="face" class="cls-2" d="M627.67,463.32c0,50.93-21.57,128.9-54.89,128.9-14.55,0-25.97-5.39-38.54-18.17-22.81-23.19-37.96-64.12-37.96-110.73s15.15-87.55,37.96-110.74c12.56-12.78,20.92-20.17,43.42-20.17,34.9,0,50.01,77.2,50.01,130.91Z"/></g><g id="sphere-perspective"><path class="cls-1" d="M289.26,458.34c0,62.8-48.46,137.87-124.61,137.87-2.22,0-4.44-.05-6.63-.16-2.19.11-4.41.16-6.63.16-76.15,0-124.61-75.07-124.61-137.87,0-56.69,37.06-136.54,124.61-137.87,2.22,0,4.44.05,6.63.16,2.19-.11,4.41-.16,6.63-.16,87.55,1.33,124.61,81.18,124.61,137.87Z"/></g><g id="cube-perspective"><rect id="rectangle" class="cls-3" x="395.02" y="52.16" width="216" height="190.34"/><g id="back"><line id="horizontal-line" class="cls-3" x1="503.02" y1="22.25" x2="661.68" y2="22.25"/></g><g id="right"><line id="vertical-line" class="cls-3" x1="660.75" y1="158.33" x2="660.75" y2="20.25"/></g><g id="top-left"><line id="_15-degree-line" class="cls-3" x1="393.78" y1="51.79" x2="505.95" y2="21.73"/></g><g id="bottom-right"><line id="_60-degree-line" class="cls-3" x1="611.02" y1="243.31" x2="660.75" y2="157.17"/></g><g id="top-inside"><line id="_30-degree-line" class="cls-3" x1="609.98" y1="53.2" x2="661.26" y2="22.51"/></g></g><g id="cylinder-perspective"><g id="bottom"><path id="curve" class="cls-1" d="M266.34,212.59c0,10.58-40.21,34.15-108.32,34.15s-108.32-23.57-108.32-34.15"/></g><g id="left"><line id="vertical-line-2" class="cls-1" x1="34.7" y1="50.97" x2="49.7" y2="212.59"/></g><g id="right-2"><line id="vertical-line-3" class="cls-1" x1="281.34" y1="50.97" x2="266.34" y2="212.59"/></g><g id="top"><path id="ellipse" class="cls-1" d="M281.34,50.97c0,10.58-55.21,19.15-123.32,19.15s-123.32-8.57-123.32-19.15,55.21-14.15,123.32-14.15,123.32,3.57,123.32,14.15Z"/></g></g></svg>